<svg width="140" height="23" viewBox="0 0 140 23" fill="none" xmlns="http://www.w3.org/2000/svg">
<path d="M7.97153 3.04039C7.86526 2.92331 7.71111 2.80125 7.50918 2.67371C7.30725 2.5357 7.0681 2.40815 6.79174 2.29107C6.51538 2.17399 6.21779 2.07834 5.89893 2.0041C5.58007 1.92987 5.2506 1.8925 4.91046 1.8925C4.16645 1.8925 3.61376 2.0305 3.25238 2.30701C2.89101 2.58352 2.71032 2.96616 2.71032 3.45491C2.71032 3.81612 2.81129 4.1031 3.01324 4.31584C3.21518 4.51762 3.52342 4.68801 3.93793 4.82601C4.35245 4.96402 4.87326 5.113 5.50035 5.27243C6.26562 5.45328 6.9299 5.671 7.49324 5.92609C8.05657 6.17072 8.48704 6.50004 8.78462 6.91456C9.08221 7.32908 9.23103 7.87662 9.23103 8.55669C9.23103 9.13064 9.12476 9.62488 8.91217 10.0394C8.69958 10.4539 8.40199 10.7942 8.01936 11.0598C7.63672 11.3148 7.19565 11.5062 6.69608 11.6337C6.19652 11.7508 5.65978 11.8091 5.08584 11.8091C4.52251 11.8091 3.95919 11.7508 3.39587 11.6337C2.84318 11.5166 2.31174 11.3467 1.80157 11.1235C1.30202 10.8899 0.839667 10.6079 0.41452 10.2785L1.22762 8.74801C1.36579 8.88602 1.56242 9.04046 1.81751 9.21036C2.08322 9.36979 2.38614 9.52374 2.72626 9.67271C3.07701 9.82168 3.45433 9.94922 3.85822 10.0553C4.27274 10.151 4.69257 10.1988 5.11772 10.1988C5.82983 10.1988 6.37189 10.0768 6.74391 9.83214C7.12655 9.57705 7.31786 9.21584 7.31786 8.74801C7.31786 8.36538 7.19565 8.06246 6.95117 7.83925C6.7067 7.60559 6.35067 7.4088 5.88299 7.24937C5.41531 7.08994 4.85732 6.9305 4.20897 6.77107C3.46496 6.56929 2.84318 6.35107 2.34363 6.11741C1.84408 5.87278 1.46676 5.56488 1.21167 5.19271C0.967211 4.81008 0.844983 4.3263 0.844983 3.74189C0.844983 2.99805 1.02567 2.37079 1.38705 1.86061C1.74842 1.33997 2.23734 0.951854 2.85381 0.696765C3.4809 0.431214 4.1824 0.298187 4.95829 0.298187C5.46847 0.298187 5.95209 0.356482 6.40911 0.473563C6.86613 0.579684 7.29131 0.72865 7.68455 0.919967C8.08846 1.11128 8.45515 1.329 8.78462 1.57363L7.97153 3.04039ZM15.8845 11.7772C15.0661 11.7772 14.3274 11.6178 13.6684 11.2989C13.0094 10.98 12.4408 10.5496 11.9625 10.0075C11.4842 9.45499 11.1122 8.83819 10.8465 8.15812C10.5914 7.46708 10.4639 6.76061 10.4639 6.03769C10.4639 5.28289 10.602 4.56545 10.8784 3.88538C11.1548 3.19435 11.5374 2.58353 12.0263 2.05193C12.5152 1.50986 13.0891 1.08488 13.7481 0.776482C14.4178 0.457621 15.1405 0.298187 15.9164 0.298187C16.7242 0.298187 17.4575 0.4631 18.1165 0.792424C18.7861 1.12175 19.3548 1.56317 19.8224 2.1157C20.3007 2.66823 20.6674 3.28502 20.9225 3.96509C21.1882 4.64516 21.3211 5.34168 21.3211 6.05363C21.3211 6.80844 21.1829 7.53086 20.9066 8.22189C20.6409 8.90196 20.2635 9.51328 19.7746 10.0553C19.2857 10.5869 18.7064 11.0064 18.0368 11.3148C17.3778 11.6232 16.6604 11.7772 15.8845 11.7772ZM12.2814 6.03769C12.2814 6.56929 12.3664 7.08445 12.5365 7.58417C12.7065 8.08388 12.9457 8.53029 13.2539 8.92339C13.5728 9.30602 13.9554 9.60893 14.4018 9.83214C14.8482 10.0553 15.3478 10.1669 15.9005 10.1669C16.4744 10.1669 16.9846 10.0499 17.431 9.8162C17.8774 9.58253 18.2494 9.26865 18.547 8.87555C18.8553 8.4715 19.0891 8.02509 19.2485 7.53634C19.4079 7.03662 19.4876 6.53741 19.4876 6.03769C19.4876 5.50609 19.4026 4.99591 19.2326 4.50715C19.0731 4.00744 18.834 3.56652 18.5151 3.18388C18.1963 2.79079 17.8136 2.48239 17.3672 2.25919C16.9314 2.03598 16.4425 1.92438 15.9005 1.92438C15.3265 1.92438 14.8163 2.04146 14.3699 2.27513C13.9235 2.50879 13.5462 2.82267 13.238 3.21577C12.9297 3.60886 12.6906 4.05029 12.5205 4.53905C12.3611 5.0278 12.2814 5.52751 12.2814 6.03769ZM28.0483 11.7772C27.1449 11.7772 26.3796 11.6232 25.7525 11.3148C25.1361 11.0064 24.6365 10.5869 24.2539 10.0553C23.8818 9.52374 23.6055 8.9179 23.4248 8.23783C23.2548 7.55776 23.1697 6.85079 23.1697 6.11741V0.377904H24.9554V6.11741C24.9554 6.63805 25.0085 7.14324 25.1148 7.63199C25.2211 8.11029 25.3912 8.54075 25.625 8.92339C25.8588 9.30602 26.1724 9.60893 26.5656 9.83214C26.9695 10.0553 27.4638 10.1669 28.0483 10.1669C28.6435 10.1669 29.1378 10.0553 29.531 9.83214C29.9349 9.59847 30.2485 9.29007 30.4717 8.90744C30.7055 8.51434 30.8756 8.0784 30.9818 7.60011C31.0881 7.12182 31.1413 6.62759 31.1413 6.11741V0.377904H32.9428V6.11741C32.9428 6.89314 32.8472 7.62652 32.6559 8.31755C32.4752 8.99762 32.1882 9.59847 31.7949 10.1191C31.4123 10.6293 30.9127 11.0334 30.2963 11.3308C29.6798 11.6282 28.9305 11.7772 28.0483 11.7772ZM43.7834 1.95627H40.0208V11.6975H38.2192V1.95627H34.4407V0.377904H43.7834V1.95627ZM54.7554 0.377904V11.6975H52.9539V6.7073H47.2463V11.6975H45.4607V0.377904H47.2463V5.11299H52.9539V0.377904H54.7554ZM64.544 9.70459C64.7138 9.83214 64.9744 9.95969 65.3252 10.0872C65.6759 10.2043 66.0904 10.2626 66.5687 10.2626C67.0366 10.2626 67.4137 10.1884 67.7007 10.0394C67.9981 9.87997 68.2213 9.64631 68.3703 9.33791C68.5297 9.01905 68.6358 8.61499 68.6892 8.12623C68.7529 7.63748 68.7848 7.05804 68.7848 6.38844V0.377904H70.5864V6.13335C70.5864 6.97285 70.5385 7.7436 70.4429 8.44509C70.3577 9.14659 70.1823 9.7579 69.9168 10.2785C69.6512 10.7887 69.2526 11.1818 68.721 11.4583C68.2004 11.7348 67.4989 11.8729 66.6166 11.8729C66.0959 11.8729 65.6336 11.8146 65.2295 11.6975C64.8255 11.5804 64.4538 11.405 64.1135 11.1714L64.544 9.70459ZM77.8768 11.7772C77.0583 11.7772 76.3199 11.6178 75.6607 11.2989C75.0016 10.98 74.4331 10.5496 73.9548 10.0075C73.4766 9.45499 73.1044 8.83819 72.8388 8.15812C72.5837 7.46708 72.4562 6.76061 72.4562 6.03769C72.4562 5.28289 72.5942 4.56545 72.8707 3.88538C73.1472 3.19435 73.5299 2.58353 74.0186 2.05193C74.5074 1.50986 75.0813 1.08488 75.7405 0.776482C76.4101 0.457621 77.133 0.298187 77.9087 0.298187C78.7163 0.298187 79.4497 0.4631 80.1089 0.792424C80.7785 1.12175 81.3469 1.56317 81.8148 2.1157C82.2931 2.66823 82.6597 3.28502 82.9148 3.96509C83.1804 4.64516 83.3134 5.34168 83.3134 6.05363C83.3134 6.80844 83.1754 7.53086 82.8989 8.22189C82.6333 8.90196 82.2557 9.51328 81.7669 10.0553C81.2782 10.5869 80.6988 11.0064 80.0291 11.3148C79.37 11.6232 78.6526 11.7772 77.8768 11.7772ZM74.2737 6.03769C74.2737 6.56929 74.3589 7.08445 74.5288 7.58417C74.6987 8.08388 74.9378 8.53029 75.2462 8.92339C75.5651 9.30602 75.9477 9.60893 76.3941 9.83214C76.8405 10.0553 77.3402 10.1669 77.8928 10.1669C78.4667 10.1669 78.9769 10.0499 79.4233 9.8162C79.8697 9.58253 80.2419 9.26865 80.5393 8.87555C80.8477 8.4715 81.0814 8.02509 81.2408 7.53634C81.4002 7.03662 81.48 6.53741 81.48 6.03769C81.48 5.50609 81.3948 4.99591 81.2249 4.50715C81.0654 4.00744 80.8263 3.56652 80.5074 3.18388C80.1886 2.79079 79.8059 2.48239 79.3595 2.25919C78.9236 2.03598 78.4348 1.92438 77.8928 1.92438C77.3188 1.92438 76.8087 2.04146 76.3622 2.27513C75.9158 2.50879 75.5387 2.82267 75.2303 3.21577C74.9219 3.60886 74.6827 4.05029 74.5128 4.53905C74.3534 5.0278 74.2737 5.52751 74.2737 6.03769ZM90.0409 11.7772C89.1371 11.7772 88.3718 11.6232 87.7451 11.3148C87.1283 11.0064 86.6291 10.5869 86.2464 10.0553C85.8743 9.52374 85.5978 8.9179 85.4174 8.23783C85.247 7.55776 85.1623 6.85079 85.1623 6.11741V0.377904H86.9479V6.11741C86.9479 6.63805 87.0007 7.14324 87.1074 7.63199C87.2135 8.11029 87.3834 8.54075 87.6175 8.92339C87.8512 9.30602 88.1646 9.60893 88.5582 9.83214C88.9617 10.0553 89.456 10.1669 90.0409 10.1669C90.6358 10.1669 91.13 10.0553 91.5236 9.83214C91.9271 9.59847 92.241 9.29007 92.4642 8.90744C92.6979 8.51434 92.8678 8.0784 92.9744 7.60011C93.0805 7.12182 93.1338 6.62759 93.1338 6.11741V0.377904H94.9354V6.11741C94.9354 6.89314 94.8397 7.62652 94.6484 8.31755C94.4676 8.99762 94.1806 9.59847 93.7875 10.1191C93.4049 10.6293 92.9052 11.0334 92.2889 11.3308C91.6721 11.6282 90.9227 11.7772 90.0409 11.7772ZM97.4693 11.6975V0.377904H102.396C102.906 0.377904 103.374 0.484025 103.799 0.696765C104.224 0.909505 104.59 1.191 104.899 1.54175C105.218 1.89249 105.462 2.28559 105.632 2.72153C105.813 3.15747 105.903 3.60388 105.903 4.06075C105.903 4.56047 105.813 5.03876 105.632 5.49563C105.451 5.9525 105.191 6.34609 104.851 6.67541C104.522 7.00474 104.134 7.24388 103.687 7.39285L106.35 11.6975H104.341L101.886 7.75954H99.255V11.6975H97.4693ZM99.255 6.18118H102.38C102.709 6.18118 103.002 6.08552 103.257 5.89421C103.512 5.70289 103.714 5.44779 103.863 5.12893C104.011 4.79961 104.086 4.44338 104.086 4.06075C104.086 3.66765 104.001 3.31691 103.831 3.00851C103.661 2.68965 103.438 2.43456 103.161 2.24324C102.895 2.05193 102.603 1.95627 102.284 1.95627H99.255V6.18118ZM109.955 3.69406V11.6975H108.169V0.377904H109.636L116.045 8.55669V0.393846H117.847V11.6975H116.284L109.955 3.69406ZM128.315 10.1191V11.6975H120.55V0.377904H128.171V1.95627H122.336V5.17677H127.39V6.65947H122.336V10.1191H128.315ZM131.146 0.377904L134.27 6.00581L137.427 0.377904H139.388L135.163 7.64794V11.6975H133.378V7.61605L129.185 0.377904H131.146Z" fill="white"/>
<path d="M30.2878 22.2878V22.6584H27.436V18.4136H30.234V18.7843H27.8545V20.3148H29.9291V20.6676H27.8545V22.2878H30.2878ZM31.1749 18.4136L32.5619 20.261L33.943 18.4136H34.4153L32.7891 20.5659L34.3675 22.6584H33.8952L32.5619 20.8708L31.2227 22.6584H30.7444L32.3228 20.5659L30.6966 18.4136H31.1749ZM35.0959 22.6584V18.4136H36.8536C37.037 18.4136 37.2044 18.4515 37.3558 18.5272C37.5113 18.6029 37.6448 18.7066 37.7564 18.8381C37.868 18.9656 37.9557 19.1091 38.0194 19.2686C38.0832 19.424 38.1151 19.5834 38.1151 19.7468C38.1151 19.978 38.0633 20.1972 37.9597 20.4045C37.86 20.6078 37.7185 20.7732 37.5352 20.9007C37.3518 21.0283 37.1366 21.092 36.8895 21.092H35.5144V22.6584H35.0959ZM35.5144 20.7214H36.8715C37.039 20.7214 37.1844 20.6755 37.308 20.5839C37.4315 20.4922 37.5272 20.3726 37.595 20.2251C37.6627 20.0777 37.6966 19.9182 37.6966 19.7468C37.6966 19.5715 37.6567 19.41 37.577 19.2626C37.4973 19.1151 37.3917 18.9995 37.2602 18.9158C37.1326 18.8281 36.9911 18.7843 36.8357 18.7843H35.5144V20.7214ZM38.9346 22.6584V18.4136H39.3531V22.2878H41.8044V22.6584H38.9346ZM44.0803 22.6883C43.7814 22.6883 43.5104 22.6285 43.2673 22.509C43.0241 22.3894 42.8149 22.228 42.6395 22.0247C42.4641 21.8174 42.3286 21.5863 42.2329 21.3312C42.1373 21.0721 42.0895 20.8071 42.0895 20.536C42.0895 20.253 42.1393 19.984 42.2389 19.7289C42.3386 19.4698 42.4781 19.2407 42.6574 19.0414C42.8408 18.8381 43.054 18.6787 43.2971 18.5631C43.5403 18.4435 43.8033 18.3837 44.0863 18.3837C44.3853 18.3837 44.6563 18.4455 44.8994 18.5691C45.1426 18.6926 45.3498 18.858 45.5212 19.0653C45.6966 19.2725 45.8321 19.5037 45.9277 19.7588C46.0234 20.0139 46.0712 20.275 46.0712 20.542C46.0712 20.825 46.0214 21.096 45.9218 21.3551C45.8221 21.6102 45.6826 21.8394 45.5033 22.0426C45.3239 22.2419 45.1127 22.3994 44.8695 22.515C44.6264 22.6305 44.3633 22.6883 44.0803 22.6883ZM42.508 20.536C42.508 20.7672 42.5458 20.9904 42.6216 21.2056C42.6973 21.4169 42.8049 21.6062 42.9444 21.7736C43.0839 21.937 43.2493 22.0686 43.4406 22.1682C43.6359 22.2639 43.8492 22.3117 44.0803 22.3117C44.3235 22.3117 44.5407 22.2619 44.732 22.1622C44.9273 22.0586 45.0927 21.9231 45.2282 21.7557C45.3678 21.5843 45.4734 21.393 45.5451 21.1817C45.6169 20.9705 45.6527 20.7552 45.6527 20.536C45.6527 20.3049 45.6149 20.0836 45.5391 19.8724C45.4634 19.6612 45.3538 19.4718 45.2103 19.3044C45.0708 19.137 44.9054 19.0055 44.7141 18.9098C44.5228 18.8142 44.3115 18.7663 44.0803 18.7663C43.8412 18.7663 43.624 18.8162 43.4287 18.9158C43.2374 19.0155 43.072 19.151 42.9324 19.3224C42.7969 19.4898 42.6913 19.6791 42.6156 19.8903C42.5438 20.1016 42.508 20.3168 42.508 20.536ZM46.9798 22.6584V18.4136H48.7734C48.9568 18.4136 49.1242 18.4515 49.2756 18.5272C49.4271 18.6029 49.5586 18.7066 49.6702 18.8381C49.7858 18.9656 49.8734 19.1091 49.9331 19.2686C49.9969 19.424 50.0288 19.5834 50.0288 19.7468C50.0288 19.9501 49.9889 20.1414 49.9092 20.3208C49.8335 20.5002 49.724 20.6516 49.5805 20.7752C49.441 20.8987 49.2756 20.9804 49.0843 21.0203L50.1245 22.6584H49.6523L48.6539 21.092H47.3983V22.6584H46.9798ZM47.3983 20.7214H48.7854C48.9528 20.7214 49.0983 20.6755 49.2218 20.5839C49.3454 20.4922 49.441 20.3726 49.5088 20.2251C49.5766 20.0737 49.6104 19.9142 49.6104 19.7468C49.6104 19.5755 49.5706 19.418 49.4909 19.2745C49.4151 19.1271 49.3115 19.0095 49.18 18.9218C49.0524 18.8301 48.9089 18.7843 48.7495 18.7843H47.3983V20.7214ZM53.8571 22.2878V22.6584H51.0053V18.4136H53.8033V18.7843H51.4238V20.3148H53.4984V20.6676H51.4238V22.2878H53.8571ZM57.54 18.4136H57.8927L59.6564 22.6584H59.214L58.664 21.3312H56.7568L56.2127 22.6584H55.7643L57.54 18.4136ZM58.5683 21.0024L57.7133 18.9039L56.8464 21.0024H58.5683ZM62.9696 18.4136H63.3223L65.086 22.6584H64.6436L64.0936 21.3312H62.1864L61.6423 22.6584H61.1939L62.9696 18.4136ZM63.9979 21.0024L63.143 18.9039L62.2761 21.0024H63.9979ZM69.575 22.6584V19.2028L68.0385 21.8872H67.7754L66.2329 19.2028V22.6584H65.8144V18.4136H66.2449L67.901 21.3192L69.569 18.4136H69.9935V22.6584H69.575ZM74.0286 22.2878V22.6584H71.1768V18.4136H73.9748V18.7843H71.5953V20.3148H73.6698V20.6676H71.5953V22.2878H74.0286ZM72.797 17.8337L72.5279 17.732L72.8807 17.176H73.3111L72.797 17.8337ZM74.9398 22.6584V18.4136H76.7334C76.9168 18.4136 77.0841 18.4515 77.2356 18.5272C77.3871 18.6029 77.5186 18.7066 77.6302 18.8381C77.7458 18.9656 77.8335 19.1091 77.8933 19.2686C77.957 19.424 77.9889 19.5834 77.9889 19.7468C77.9889 19.9501 77.9491 20.1414 77.8693 20.3208C77.7936 20.5002 77.684 20.6516 77.5405 20.7752C77.401 20.8987 77.2356 20.9804 77.0443 21.0203L78.0846 22.6584H77.6123L76.6138 21.092H75.3583V22.6584H74.9398ZM75.3583 20.7214H76.7454C76.9128 20.7214 77.0582 20.6755 77.1818 20.5839C77.3054 20.4922 77.401 20.3726 77.4688 20.2251C77.5365 20.0737 77.5704 19.9142 77.5704 19.7468C77.5704 19.5755 77.5306 19.418 77.4508 19.2745C77.3751 19.1271 77.2715 19.0095 77.1399 18.9218C77.0124 18.8301 76.8689 18.7843 76.7095 18.7843H75.3583V20.7214ZM78.9649 22.6584V18.4136H79.3834V22.6584H78.9649ZM80.2867 20.5061C80.2867 20.2471 80.3306 19.994 80.4182 19.7468C80.5099 19.4957 80.6414 19.2685 80.8128 19.0653C80.9842 18.858 81.1955 18.6946 81.4466 18.575C81.6977 18.4515 81.9826 18.3897 82.3015 18.3897C82.6802 18.3897 83.003 18.4774 83.2701 18.6528C83.5411 18.8241 83.7404 19.0454 83.8679 19.3164L83.5391 19.5197C83.4474 19.3323 83.3318 19.1848 83.1923 19.0772C83.0528 18.9656 82.9034 18.8859 82.7439 18.8381C82.5885 18.7903 82.433 18.7663 82.2776 18.7663C82.0225 18.7663 81.7973 18.8182 81.602 18.9218C81.4067 19.0214 81.2413 19.1569 81.1058 19.3283C80.9743 19.4957 80.8746 19.6851 80.8069 19.8963C80.7391 20.1036 80.7052 20.3148 80.7052 20.53C80.7052 20.7652 80.7451 20.9904 80.8248 21.2056C80.9045 21.4209 81.0161 21.6122 81.1596 21.7796C81.3031 21.943 81.4705 22.0745 81.6618 22.1742C81.8571 22.2698 82.0683 22.3177 82.2955 22.3177C82.455 22.3177 82.6184 22.2898 82.7858 22.234C82.9532 22.1782 83.1086 22.0925 83.2521 21.9769C83.3996 21.8613 83.5172 21.7118 83.6049 21.5285L83.9516 21.7078C83.8639 21.9191 83.7284 22.0984 83.5451 22.2459C83.3617 22.3934 83.1565 22.505 82.9293 22.5807C82.7061 22.6564 82.4868 22.6943 82.2716 22.6943C81.9807 22.6943 81.7136 22.6325 81.4705 22.509C81.2274 22.3814 81.0161 22.214 80.8368 22.0068C80.6614 21.7955 80.5259 21.5604 80.4302 21.3013C80.3345 21.0382 80.2867 20.7732 80.2867 20.5061ZM86.0426 18.4136H86.3954L88.1591 22.6584H87.7167L87.1666 21.3312H85.2595L84.7154 22.6584H84.267L86.0426 18.4136ZM87.071 21.0024L86.216 18.9039L85.3491 21.0024H87.071ZM90.3438 22.6584V18.4136H91.7846C92.235 18.4136 92.6097 18.5093 92.9086 18.7006C93.2115 18.8879 93.4387 19.143 93.5902 19.4658C93.7417 19.7847 93.8174 20.1394 93.8174 20.53C93.8174 20.9605 93.7337 21.3352 93.5663 21.654C93.4029 21.9729 93.1677 22.22 92.8608 22.3954C92.5579 22.5708 92.1992 22.6584 91.7846 22.6584H90.3438ZM93.3989 20.53C93.3989 20.1913 93.3351 19.8903 93.2076 19.6273C93.084 19.3642 92.9026 19.1589 92.6635 19.0115C92.4244 18.86 92.1314 18.7843 91.7846 18.7843H90.7623V22.2878H91.7846C92.1354 22.2878 92.4303 22.21 92.6695 22.0546C92.9086 21.8992 93.09 21.6899 93.2135 21.4268C93.3371 21.1598 93.3989 20.8609 93.3989 20.53ZM96.447 22.6883C96.148 22.6883 95.877 22.6285 95.6339 22.509C95.3908 22.3894 95.1815 22.228 95.0061 22.0247C94.8308 21.8174 94.6952 21.5863 94.5996 21.3312C94.5039 21.0721 94.4561 20.8071 94.4561 20.536C94.4561 20.253 94.5059 19.984 94.6056 19.7289C94.7052 19.4698 94.8447 19.2407 95.0241 19.0414C95.2074 18.8381 95.4206 18.6787 95.6638 18.5631C95.9069 18.4435 96.17 18.3837 96.453 18.3837C96.7519 18.3837 97.0229 18.4455 97.2661 18.5691C97.5092 18.6926 97.7165 18.858 97.8878 19.0653C98.0632 19.2725 98.1987 19.5037 98.2944 19.7588C98.39 20.0139 98.4379 20.275 98.4379 20.542C98.4379 20.825 98.3881 21.096 98.2884 21.3551C98.1888 21.6102 98.0493 21.8394 97.8699 22.0426C97.6905 22.2419 97.4793 22.3994 97.2362 22.515C96.993 22.6305 96.73 22.6883 96.447 22.6883ZM94.8746 20.536C94.8746 20.7672 94.9125 20.9904 94.9882 21.2056C95.0639 21.4169 95.1715 21.6062 95.311 21.7736C95.4505 21.937 95.6159 22.0686 95.8073 22.1682C96.0026 22.2639 96.2158 22.3117 96.447 22.3117C96.6901 22.3117 96.9073 22.2619 97.0987 22.1622C97.294 22.0586 97.4594 21.9231 97.5949 21.7557C97.7344 21.5843 97.84 21.393 97.9117 21.1817C97.9835 20.9705 98.0194 20.7552 98.0194 20.536C98.0194 20.3049 97.9815 20.0836 97.9058 19.8724C97.83 19.6612 97.7204 19.4718 97.5769 19.3044C97.4374 19.137 97.272 19.0055 97.0807 18.9098C96.8894 18.8142 96.6781 18.7663 96.447 18.7663C96.2078 18.7663 95.9906 18.8162 95.7953 18.9158C95.604 19.0155 95.4386 19.151 95.2991 19.3224C95.1636 19.4898 95.058 19.6791 94.9822 19.8903C94.9105 20.1016 94.8746 20.3168 94.8746 20.536ZM103.471 19.2088C103.412 19.141 103.342 19.0812 103.262 19.0294C103.182 18.9736 103.093 18.9258 102.993 18.8859C102.893 18.8461 102.786 18.8142 102.67 18.7903C102.559 18.7663 102.439 18.7544 102.312 18.7544C101.941 18.7544 101.668 18.8261 101.492 18.9696C101.321 19.1091 101.235 19.3004 101.235 19.5436C101.235 19.711 101.275 19.8425 101.355 19.9382C101.439 20.0338 101.568 20.1115 101.744 20.1713C101.919 20.2311 102.142 20.2929 102.413 20.3567C102.716 20.4204 102.977 20.4962 103.196 20.5839C103.416 20.6715 103.585 20.7911 103.705 20.9426C103.824 21.09 103.884 21.2913 103.884 21.5464C103.884 21.7417 103.846 21.9111 103.77 22.0546C103.695 22.1981 103.589 22.3177 103.453 22.4133C103.318 22.509 103.157 22.5807 102.969 22.6286C102.782 22.6724 102.577 22.6943 102.353 22.6943C102.134 22.6943 101.923 22.6724 101.72 22.6286C101.52 22.5807 101.331 22.513 101.152 22.4253C100.972 22.3336 100.805 22.218 100.649 22.0785L100.859 21.7377C100.934 21.8174 101.024 21.8932 101.128 21.9649C101.235 22.0327 101.353 22.0945 101.481 22.1503C101.612 22.2061 101.752 22.2499 101.899 22.2818C102.05 22.3097 102.206 22.3236 102.365 22.3236C102.704 22.3236 102.967 22.2619 103.155 22.1383C103.346 22.0147 103.441 21.8314 103.441 21.5883C103.441 21.4129 103.394 21.2734 103.298 21.1698C103.202 21.0621 103.059 20.9745 102.868 20.9067C102.676 20.8389 102.441 20.7732 102.162 20.7094C101.867 20.6416 101.618 20.5659 101.415 20.4822C101.211 20.3985 101.058 20.2889 100.954 20.1534C100.855 20.0139 100.805 19.8305 100.805 19.6034C100.805 19.3403 100.869 19.1191 100.996 18.9397C101.128 18.7564 101.307 18.6189 101.534 18.5272C101.762 18.4315 102.023 18.3837 102.318 18.3837C102.505 18.3837 102.678 18.4036 102.838 18.4435C103.001 18.4794 103.151 18.5332 103.286 18.6049C103.426 18.6767 103.555 18.7663 103.675 18.874L103.471 19.2088ZM106.469 22.6883C106.134 22.6883 105.851 22.6285 105.62 22.509C105.389 22.3894 105.206 22.23 105.07 22.0307C104.935 21.8274 104.835 21.5982 104.771 21.3431C104.711 21.0881 104.682 20.825 104.682 20.554V18.4136H105.094V20.554C105.094 20.7732 105.116 20.9884 105.16 21.1997C105.208 21.4109 105.283 21.6002 105.387 21.7676C105.491 21.935 105.63 22.0686 105.806 22.1682C105.981 22.2639 106.2 22.3117 106.463 22.3117C106.734 22.3117 106.957 22.2619 107.133 22.1622C107.312 22.0586 107.452 21.9231 107.551 21.7557C107.655 21.5883 107.729 21.4009 107.773 21.1937C107.816 20.9824 107.838 20.7692 107.838 20.554V18.4136H108.257V20.554C108.257 20.8369 108.225 21.108 108.161 21.3671C108.097 21.6261 107.994 21.8533 107.85 22.0486C107.711 22.2439 107.527 22.3994 107.3 22.515C107.073 22.6305 106.796 22.6883 106.469 22.6883ZM109.374 22.6584V18.4136H109.792V22.2878H112.244V22.6584H109.374Z" fill="#FFEE87"/>
<path d="M22.9182 21.662C23.4685 21.662 23.9146 21.2159 23.9146 20.6655C23.9146 20.1152 23.4685 19.6691 22.9182 19.6691C22.3679 19.6691 21.9217 20.1152 21.9217 20.6655C21.9217 21.2159 22.3679 21.662 22.9182 21.662Z" fill="#FFEE87"/>
<path d="M124.555 21.662C125.105 21.662 125.552 21.2159 125.552 20.6655C125.552 20.1152 125.105 19.6691 124.555 19.6691C124.005 19.6691 123.559 20.1152 123.559 20.6655C123.559 21.2159 124.005 21.662 124.555 21.662Z" fill="#FFEE87"/>
<path d="M18.9324 21.662C19.4827 21.662 19.9288 21.2159 19.9288 20.6655C19.9288 20.1152 19.4827 19.6691 18.9324 19.6691C18.3821 19.6691 17.936 20.1152 17.936 20.6655C17.936 21.2159 18.3821 21.662 18.9324 21.662Z" fill="#FFEE87"/>
<path d="M120.569 21.662C121.12 21.662 121.566 21.2159 121.566 20.6655C121.566 20.1152 121.12 19.6691 120.569 19.6691C120.019 19.6691 119.573 20.1152 119.573 20.6655C119.573 21.2159 120.019 21.662 120.569 21.662Z" fill="#FFEE87"/>
<path d="M14.9466 21.662C15.4969 21.662 15.9431 21.2159 15.9431 20.6655C15.9431 20.1152 15.4969 19.6691 14.9466 19.6691C14.3963 19.6691 13.9502 20.1152 13.9502 20.6655C13.9502 21.2159 14.3963 21.662 14.9466 21.662Z" fill="#FFEE87"/>
<path d="M116.584 21.662C117.134 21.662 117.58 21.2159 117.58 20.6655C117.58 20.1152 117.134 19.6691 116.584 19.6691C116.033 19.6691 115.587 20.1152 115.587 20.6655C115.587 21.2159 116.033 21.662 116.584 21.662Z" fill="#FFEE87"/>
</svg>
