<svg width="26" height="20" viewBox="0 0 26 20" fill="none" xmlns="http://www.w3.org/2000/svg">
<path d="M1.9321 0.221893C1.25398 0.353143 0.608662 0.856268 0.302412 1.50158C-0.0147755 2.15783 0.0399122 3.03283 0.433662 3.64533C0.652413 3.98439 1.00241 4.29064 1.4071 4.48752L1.80085 4.67346H13.0009H24.2118L24.5618 4.50939C25.7321 3.95158 26.2134 2.62814 25.6774 1.47971C25.3602 0.823455 24.7368 0.342206 24.0259 0.210956C23.6868 0.14533 2.26023 0.14533 1.9321 0.221893Z" fill="#FFEE87"/>
<path d="M1.84375 7.81253C1.16563 7.97659 0.585939 8.44691 0.290626 9.08128C0.137502 9.42034 0.126564 9.47503 0.126564 10.011C0.126564 10.5797 0.126564 10.6016 0.323439 10.9844C0.564064 11.4657 0.957814 11.8594 1.45 12.0891L1.8 12.2532L12.8797 12.2641C22.8984 12.275 23.9812 12.2641 24.2437 12.1875C24.6703 12.0672 24.9984 11.8703 25.2828 11.5641C26.5187 10.2516 25.8187 8.11878 24.0359 7.77972C23.5984 7.70316 2.19375 7.72503 1.84375 7.81253Z" fill="#FFEE87"/>
<path d="M1.87656 15.3922C1.19844 15.5344 0.596876 16.0157 0.301564 16.65C0.104689 17.0547 0.0390635 17.711 0.148439 18.1157C0.312501 18.7828 0.804689 19.3625 1.45 19.6688L1.8 19.8328H13H24.211L24.561 19.6688C26.0047 18.9797 26.3547 17.1532 25.2391 16.0157C24.9328 15.6985 24.4735 15.4578 24.025 15.3703C23.6094 15.2828 2.24844 15.3047 1.87656 15.3922Z" fill="#FFEE87"/>
</svg>
